<?xml version="1.0" standalone="no"?>
<!DOCTYPE svg PUBLIC "-//W3C//DTD SVG 20010904//EN"
 "http://www.w3.org/TR/2001/REC-SVG-20010904/DTD/svg10.dtd">
<svg version="1.0" xmlns="http://www.w3.org/2000/svg"
 width="512.000000pt" height="512.000000pt" viewBox="0 0 512.000000 512.000000"
 preserveAspectRatio="xMidYMid meet">
<metadata>
Created by potrace 1.14, written by Peter Selinger 2001-2017
</metadata>
<g transform="translate(0.000000,512.000000) scale(0.100000,-0.100000)"
fill="#000000" stroke="none">
<path d="M2428 4885 c-1 -2 -41 -6 -86 -10 -46 -4 -94 -8 -105 -11 -12 -2 -39
-7 -59 -9 -98 -13 -346 -77 -423 -109 -16 -7 -63 -27 -102 -44 -40 -17 -73
-26 -73 -21 0 10 -130 -57 -237 -121 -36 -22 -67 -40 -69 -40 -2 0 -12 -7 -21
-16 -10 -8 -43 -33 -73 -55 -79 -57 -108 -80 -153 -119 -65 -56 -143 -134
-153 -152 -5 -9 -26 -34 -46 -57 -21 -22 -38 -45 -38 -51 0 -5 -7 -10 -15 -10
-8 0 -15 -7 -15 -15 0 -8 -3 -15 -7 -15 -5 -1 -25 -24 -46 -53 -21 -29 -56
-76 -77 -106 -22 -30 -40 -61 -40 -68 0 -7 -4 -13 -9 -13 -5 0 -13 -9 -16 -20
-3 -11 -12 -26 -19 -32 -11 -12 -128 -246 -146 -293 -4 -11 -14 -33 -21 -50
-7 -16 -13 -34 -14 -40 0 -5 -3 -14 -7 -20 -13 -22 -68 -212 -70 -242 -1 -7
-4 -13 -7 -13 -3 0 -6 -10 -7 -22 0 -13 -4 -39 -9 -58 -4 -19 -9 -48 -10 -65
-2 -16 -4 -30 -5 -30 -3 0 -9 -47 -18 -139 -11 -104 -7 -425 7 -501 5 -33 12
-77 16 -98 46 -316 199 -684 403 -970 107 -150 278 -335 401 -432 35 -28 74
-60 87 -72 13 -13 27 -23 31 -23 5 0 24 -13 43 -30 19 -16 41 -29 48 -30 6 0
12 -4 12 -10 0 -5 5 -10 11 -10 6 0 23 -8 37 -19 51 -36 155 -91 292 -154 105
-49 291 -112 390 -132 8 -2 15 -4 15 -5 0 -1 12 -3 28 -6 15 -2 39 -6 55 -8
15 -3 27 -5 27 -6 0 -1 11 -3 25 -5 14 -1 45 -6 70 -10 127 -19 171 -22 360
-20 113 2 214 5 225 8 11 2 43 8 70 11 61 9 92 14 125 21 54 13 76 17 95 19
48 7 253 73 297 97 10 5 23 9 29 9 13 0 282 130 289 140 3 3 12 10 20 13 8 4
29 16 45 27 17 11 37 23 45 27 8 3 17 9 20 12 3 4 22 17 42 31 21 14 38 28 38
33 0 4 5 7 11 7 38 0 318 266 433 410 37 47 74 93 82 103 8 9 14 19 14 22 0 3
21 35 46 71 26 37 79 130 119 208 131 257 211 518 240 781 4 33 9 74 11 90 5
41 6 404 0 413 -2 4 -7 39 -11 77 -3 39 -11 88 -16 110 -5 22 -10 51 -12 65
-1 14 -6 31 -10 38 -5 6 -6 12 -3 12 3 0 -2 24 -10 53 -30 107 -47 162 -53
172 -3 6 -6 17 -8 25 -1 8 -6 23 -12 35 -5 11 -31 70 -57 130 -56 129 -164
321 -227 402 -24 32 -44 62 -44 67 -1 28 -272 305 -398 406 -93 74 -313 220
-331 220 -7 0 -14 3 -16 8 -4 8 -187 99 -218 107 -3 1 -16 6 -30 12 -69 30
-135 53 -151 53 -10 0 -20 4 -23 9 -3 5 -18 11 -33 14 -16 3 -64 15 -108 26
-44 12 -93 23 -110 26 -30 4 -61 9 -125 19 -87 15 -442 31 -452 21z"/>
</g>
</svg>
